<?xml version="1.0" encoding="UTF-8"?>
<svg id="Capa_1" data-name="Capa 1" xmlns="http://www.w3.org/2000/svg" viewBox="0 0 297.71 220.81">
  <defs>
    <style>
      .cls-1 {
        fill: #349dad;
      }
    </style>
  </defs>
  <g>
    <path class="cls-1" d="M31.69,169.5c-.68,0-1.23,.21-1.65,.62-.43,.41-.64,.93-.64,1.55v25.36c0,.62,.21,1.14,.62,1.55s.94,.62,1.59,.62c.59,0,1.11-.21,1.55-.62,.44-.41,.67-.93,.7-1.55v-25.36c0-.62-.22-1.14-.66-1.55-.44-.41-.94-.62-1.51-.62Z"/>
    <path class="cls-1" d="M63,169.5c-.57,0-1.04,.19-1.4,.57-.36,.38-.55,.86-.55,1.43v20.08l-16.37-21.31c-.17-.26-.43-.45-.78-.57-.36-.13-.69-.19-1-.19-.59,0-1.1,.19-1.53,.59-.43,.39-.64,.92-.64,1.57v25.57c0,.54,.18,1,.53,1.38,.35,.38,.83,.57,1.42,.57,.56,0,1.03-.19,1.4-.57,.37-.38,.55-.84,.55-1.38v-20.02l16.46,21.34c.17,.2,.42,.35,.74,.47,.33,.11,.63,.17,.91,.17,.62,0,1.14-.21,1.55-.62s.62-.93,.62-1.55v-25.53c0-.57-.17-1.04-.53-1.43-.36-.38-.82-.57-1.38-.57Z"/>
    <path class="cls-1" d="M93.66,183.5h-7.34c-.62,0-1.14,.2-1.55,.59-.41,.39-.62,.9-.62,1.53s.21,1.13,.62,1.53c.41,.4,.93,.59,1.55,.59h4.88v6.44c-.71,.33-1.49,.62-2.46,.84-1.1,.24-2.15,.36-3.14,.36-2.04,0-3.87-.48-5.51-1.46-1.64-.97-2.94-2.3-3.88-3.99-.95-1.68-1.42-3.54-1.42-5.58s.47-3.93,1.42-5.6c.95-1.67,2.24-2.99,3.88-3.97,1.64-.97,3.48-1.46,5.51-1.46,1.02,0,1.98,.11,2.88,.32,.9,.21,1.76,.52,2.55,.91,.17,.08,.36,.16,.57,.21,.21,.06,.42,.08,.62,.08,.56,0,1.04-.22,1.42-.66,.38-.44,.57-.95,.57-1.55,0-.31-.08-.63-.26-.95-.17-.33-.44-.59-.81-.78-1.05-.59-2.22-1.05-3.52-1.36-1.3-.31-2.65-.47-4.03-.47-2.15,0-4.16,.39-6.02,1.17-1.86,.78-3.5,1.86-4.9,3.27-1.4,1.4-2.49,3.01-3.29,4.86-.79,1.84-1.18,3.83-1.18,5.98s.39,4.15,1.18,5.98c.79,1.84,1.89,3.46,3.29,4.86s3.04,2.49,4.9,3.27c1.87,.78,3.88,1.17,6.02,1.17,1.7,0,3.31-.24,4.86-.72,1.54-.48,2.95-1.12,4.22-1.91,.28-.2,.54-.45,.77-.76,.22-.31,.34-.69,.34-1.15v-9.42c0-.62-.21-1.14-.62-1.55s-.91-.62-1.5-.62Z"/>
    <path class="cls-1" d="M118.17,173.57c.59,0,1.09-.18,1.5-.55s.62-.85,.62-1.44-.21-1.09-.62-1.48c-.41-.4-.92-.59-1.5-.59h-14.68c-.59,0-1.1,.21-1.53,.62-.43,.41-.64,.93-.64,1.55v25.36c0,.62,.21,1.14,.64,1.55,.43,.41,.93,.62,1.53,.62h14.68c.59,0,1.09-.19,1.5-.57,.41-.38,.62-.87,.62-1.46,0-.54-.21-1.01-.62-1.42-.41-.41-.92-.62-1.5-.62h-12.38v-9.07h10.47c.59,0,1.09-.18,1.5-.55s.62-.85,.62-1.44-.21-1.13-.62-1.53c-.41-.4-.91-.59-1.5-.59h-10.47v-8.35h12.38Z"/>
    <path class="cls-1" d="M147.82,169.5c-.57,0-1.04,.19-1.4,.57-.36,.38-.55,.86-.55,1.43v20.08l-16.37-21.31c-.17-.26-.43-.45-.78-.57-.36-.13-.69-.19-1-.19-.59,0-1.1,.19-1.53,.59-.43,.39-.64,.92-.64,1.57v25.57c0,.54,.18,1,.53,1.38,.35,.38,.83,.57,1.42,.57,.56,0,1.03-.19,1.4-.57,.37-.38,.55-.84,.55-1.38v-20.02l16.46,21.34c.17,.2,.42,.35,.74,.47,.33,.11,.63,.17,.91,.17,.62,0,1.14-.21,1.55-.62,.41-.41,.62-.93,.62-1.55v-25.53c0-.57-.17-1.04-.53-1.43-.36-.38-.82-.57-1.38-.57Z"/>
    <path class="cls-1" d="M158.92,169.5c-.68,0-1.23,.21-1.65,.62s-.64,.93-.64,1.55v25.36c0,.62,.21,1.14,.62,1.55s.94,.62,1.59,.62c.59,0,1.11-.21,1.55-.62,.44-.41,.67-.93,.71-1.55v-25.36c0-.62-.22-1.14-.66-1.55-.44-.41-.94-.62-1.51-.62Z"/>
    <path class="cls-1" d="M180.22,170.78c-.17-.45-.44-.81-.8-1.06-.37-.25-.76-.38-1.19-.38-.45-.03-.87,.09-1.25,.34-.38,.25-.67,.62-.87,1.1l-10.77,26.04c-.08,.25-.13,.48-.13,.68,.03,.54,.2,.98,.51,1.33,.31,.36,.77,.53,1.4,.53,.42,0,.8-.13,1.14-.38,.34-.26,.59-.61,.77-1.06l2.51-6.02h13.01l2.55,6.02c.17,.43,.43,.77,.78,1.04,.35,.27,.74,.4,1.17,.4,.51,0,.97-.19,1.38-.57,.41-.38,.62-.88,.62-1.5,0-.28-.06-.56-.17-.85l-10.64-25.66Zm-6.99,17.04l4.76-11.43,4.83,11.43h-9.59Z"/>
    <path class="cls-1" d="M211.6,195.03h-11.96v-23.37c0-.62-.22-1.14-.66-1.55-.44-.41-.94-.62-1.51-.62-.68,0-1.23,.21-1.65,.62s-.64,.93-.64,1.55v25.36c0,.62,.21,1.14,.62,1.55s.93,.62,1.55,.62h14.25c.59,0,1.09-.2,1.5-.59,.41-.39,.62-.89,.62-1.48s-.21-1.09-.62-1.48c-.41-.39-.91-.59-1.5-.59Z"/>
    <path class="cls-1" d="M230.86,170.78c-.17-.45-.44-.81-.8-1.06-.37-.25-.76-.38-1.19-.38-.45-.03-.87,.09-1.25,.34-.38,.25-.67,.62-.87,1.1l-10.77,26.04c-.08,.25-.13,.48-.13,.68,.03,.54,.2,.98,.51,1.33,.31,.36,.77,.53,1.4,.53,.42,0,.81-.13,1.14-.38,.34-.26,.59-.61,.77-1.06l2.51-6.02h13.01l2.55,6.02c.17,.43,.43,.77,.78,1.04,.35,.27,.74,.4,1.17,.4,.51,0,.97-.19,1.38-.57,.41-.38,.62-.88,.62-1.5,0-.28-.06-.56-.17-.85l-10.64-25.66Zm-6.99,17.04l4.76-11.43,4.83,11.43h-9.59Z"/>
    <path class="cls-1" d="M267.37,186.44c-.62-1.06-1.41-1.9-2.37-2.52-.68-.44-1.44-.68-2.18-.93,.12-.05,.26-.07,.38-.13,1.17-.59,2.07-1.4,2.67-2.44,.61-1.04,.92-2.19,.92-3.46,0-2.44-.67-4.29-2.01-5.56-1.35-1.27-3.32-1.9-5.92-1.9h-10.86c-.59,0-1.1,.21-1.53,.62s-.64,.93-.64,1.55v25.36c0,.62,.21,1.14,.64,1.55s.93,.62,1.53,.62h10.86c1.07,0,2.17-.13,3.29-.41,1.12-.27,2.14-.73,3.07-1.38,.94-.65,1.68-1.55,2.25-2.69,.56-1.14,.85-2.58,.85-4.3,0-1.58-.31-2.9-.94-3.97Zm-6.23-11.79c.71,.67,1.06,1.66,1.06,2.99s-.39,2.28-1.17,2.95c-.78,.66-1.67,1.01-2.69,1.04h-7.93v-7.97h7.84c1.22,0,2.18,.33,2.88,.99Zm1.23,19.3c-.9,.78-2.09,1.17-3.56,1.17h-8.4v-9.33h8.14c.79,0,1.58,.12,2.37,.34s1.46,.66,1.99,1.31c.54,.65,.81,1.64,.81,2.97,0,1.58-.45,2.77-1.36,3.54Z"/>
  </g>
  <path class="cls-1" d="M184.86,145.44c-1.86-2.72-3.68-5.44-5.49-8.21l-4.68-7.05c-4.08-6.09-8.11-12.19-12.04-18.43-4.89-7.86-7.1-16.27-6.7-25.08,.15-3.88,.1-7.86,.05-11.68v-4.58h-14.3v3.63c0,5.39,0,10.68-.05,15.96-.05,2.37-.25,4.63-.65,6.75-1.61,8.06-5.54,14.76-8.81,19.69-4.48,6.85-9.07,13.6-13.6,20.35l-5.84,8.66c-1.31,1.96-1.41,3.83-.35,5.84,.96,1.86,2.47,2.77,4.53,2.77h63.46c2.37,0,3.93-.86,4.89-2.77,1.06-2.07,.91-3.93-.4-5.84Zm36.11,1.56L160.74,27.9c-1.01-2.12-2.52-3.78-4.58-4.94-2.06-1.16-4.33-1.76-6.7-1.76-2.57-.15-4.94,.4-7.1,1.56-2.17,1.21-3.78,2.87-4.94,5.14l-60.94,120.87c-.5,1.16-.71,2.22-.71,3.17,.15,2.47,1.11,4.53,2.87,6.19,1.76,1.61,4.38,2.42,7.91,2.42h21.3c-2.77-2.12-4.63-5.24-5.44-9.12-.81-3.98,.05-7.81,2.47-11.38,6.7-10.02,13.45-19.99,20.04-30.07,5.44-8.21,7.81-16.22,7.3-24.48-.25-3.68-.2-7.35-.1-10.93,0-1.41,.05-2.87,.05-4.28,0-1.91-.05-2.72-.91-3.53-2.37-2.32-2.82-5.79-1.31-9.27,1.51-3.42,4.48-5.39,8.11-5.44,8.26-.15,15.11-.15,21.61,0,3.83,.05,6.9,2.32,8.21,5.99,.86,2.37,1.16,5.89-2.01,9.57-.2,.2-.35,.6-.35,.76v7.45c.05,3.83,.05,7.66-.05,11.53-.25,6.8,1.56,13.35,5.34,19.34,4.48,7.1,9.12,14.05,13.75,21.05l8.36,12.49c3.12,4.63,3.53,10.37,1.06,15.36-1.01,1.96-2.37,3.68-4.03,4.94h20.7c2.87,0,5.49-.86,7.81-2.62,2.32-1.76,3.47-4.13,3.47-7,0-1.31-.35-2.62-.96-3.93Z"/>
</svg>